<svg viewBox="0 0 1200 800" xmlns="http://www.w3.org/2000/svg">
  <!-- Define gradients for subtle depth -->
  <defs>
    <!-- Yellow gradient -->
    <linearGradient id="yellowGradient" x1="0%" y1="0%" x2="100%" y2="100%">
      <stop offset="0%" style="stop-color:#FFD700;stop-opacity:1" />
      <stop offset="100%" style="stop-color:#FFC300;stop-opacity:1" />
    </linearGradient>
    
    <!-- Dark gradient -->
    <linearGradient id="darkGradient" x1="0%" y1="0%" x2="100%" y2="100%">
      <stop offset="0%" style="stop-color:#0A0A0A;stop-opacity:1" />
      <stop offset="100%" style="stop-color:#1A1A1A;stop-opacity:1" />
    </linearGradient>
    
    <!-- Accent gradient -->
    <linearGradient id="accentGradient" x1="0%" y1="0%" x2="0%" y2="100%">
      <stop offset="0%" style="stop-color:#FFD700;stop-opacity:0.8" />
      <stop offset="100%" style="stop-color:#FFD700;stop-opacity:0" />
    </linearGradient>
  </defs>
  
  <!-- Black background -->
  <rect width="1200" height="800" fill="#000000"/>
  
  <!-- Main diagonal geometric shape -->
  <path d="M 0,0 L 850,0 L 650,800 L 0,800 Z" 
        fill="url(#darkGradient)"/>
  
  <!-- Yellow accent triangle -->
  <path d="M 850,0 L 1200,0 L 1200,300 Z" 
        fill="url(#yellowGradient)"/>
  
  <!-- Thin yellow accent line -->
  <line x1="650" y1="800" x2="850" y2="0" 
        stroke="#FFD700" 
        stroke-width="3"/>
  
  <!-- Small geometric accent -->
  <rect x="0" y="0" width="150" height="5" fill="#FFD700"/>
  
  <!-- Subtle accent shapes -->
  <circle cx="1100" cy="700" r="80" fill="none" stroke="#FFD700" stroke-width="2" opacity="0.3"/>
  <circle cx="1100" cy="700" r="100" fill="none" stroke="#FFD700" stroke-width="1" opacity="0.2"/>
  
  <!-- Bottom corner accent -->
  <path d="M 900,800 L 1200,800 L 1200,600 Z" 
        fill="#FFD700" 
        opacity="0.1"/>
  
  <!-- Vertical accent bar -->
  <rect x="50" y="200" width="4" height="400" fill="#FFD700" opacity="0.6"/>
  
  <!-- Subtle grid dots in corner -->
  <g opacity="0.2">
    <circle cx="100" cy="700" r="2" fill="#FFD700"/>
    <circle cx="150" cy="700" r="2" fill="#FFD700"/>
    <circle cx="200" cy="700" r="2" fill="#FFD700"/>
    <circle cx="100" cy="750" r="2" fill="#FFD700"/>
    <circle cx="150" cy="750" r="2" fill="#FFD700"/>
    <circle cx="200" cy="750" r="2" fill="#FFD700"/>
  </g>
</svg>